<svg width="99" height="97" viewBox="0 0 99 97" fill="none" xmlns="http://www.w3.org/2000/svg">
<g clip-path="url(#clip0_20_544)">
<path d="M46.8852 5.28992C46.0155 4.43776 44.8447 3.96053 43.6085 3.96053C41.0483 3.96053 38.9861 5.98654 38.9861 8.5004C38.9861 9.66364 39.4347 10.8265 40.3375 11.7107L47.1915 18.4264H51.8029L58.6627 11.7107C59.5653 10.8265 60.0139 9.66345 60.0139 8.5004C60.0139 5.98654 57.9517 3.96053 55.3861 3.96053C54.199 3.96053 53.012 4.40556 52.1094 5.28992C51.3491 6.03504 50.6542 6.92472 49.4563 6.89781C48.3019 6.8764 47.6292 6.01875 46.8852 5.28992ZM73.3062 40.3585C72.5076 40.3585 71.8622 39.7208 71.8622 38.9381C71.8622 38.1557 72.5076 37.5233 73.3062 37.5233H75.8336C76.6324 37.5233 77.2832 38.1557 77.2832 38.9381C77.2832 39.7208 76.6324 40.3585 75.8336 40.3585H73.3062ZM63.2794 40.3585C62.4808 40.3585 61.8298 39.7208 61.8298 38.9381C61.8298 38.1557 62.4808 37.5233 63.2794 37.5233H65.8068C66.6052 37.5233 67.251 38.1557 67.251 38.9381C67.251 39.7208 66.6053 40.3585 65.8068 40.3585H63.2794ZM53.2525 40.3585C52.4483 40.3585 51.8029 39.7208 51.8029 38.9381C51.8029 38.1557 52.4483 37.5233 53.2525 37.5233H55.7797C56.5785 37.5233 57.2241 38.1557 57.2241 38.9381C57.2241 39.7208 56.5785 40.3585 55.7797 40.3585H53.2525ZM43.2201 40.3585C42.4213 40.3585 41.7759 39.7208 41.7759 38.9381C41.7759 38.1557 42.4213 37.5233 43.2201 37.5233H45.7473C46.5459 37.5233 47.1969 38.1557 47.1969 38.9381C47.1969 39.7208 46.5459 40.3585 45.7473 40.3585H43.2201ZM33.1932 40.3585C32.3947 40.3585 31.7436 39.7208 31.7436 38.9381C31.7436 38.1557 32.3947 37.5233 33.1932 37.5233H35.7204C36.5192 37.5233 37.1646 38.1557 37.1646 38.9381C37.1646 39.7208 36.5192 40.3585 35.7204 40.3585H33.1932ZM23.1608 40.3585C22.3622 40.3585 21.7168 39.7208 21.7168 38.9381C21.7168 38.1557 22.3622 37.5233 23.1608 37.5233H25.688C26.492 37.5233 27.1376 38.1557 27.1376 38.9381C27.1376 39.7208 26.4922 40.3585 25.688 40.3585H23.1608ZM13.7794 68.2183C12.9806 68.2183 12.3354 67.5806 12.3354 66.798C12.3354 66.0153 12.9806 65.3778 13.7794 65.3778H16.6129C17.4116 65.3778 18.0625 66.0153 18.0625 66.798C18.0625 67.5806 17.4116 68.2183 16.6129 68.2183H13.7794ZM81.2164 68.2183C80.4122 68.2183 79.7667 67.5806 79.7667 66.798C79.7667 66.0153 80.4122 65.3778 81.2164 65.3778H84.0444C84.8432 65.3778 85.494 66.0153 85.494 66.798C85.494 67.5806 84.8432 68.2183 84.0444 68.2183H81.2164ZM69.975 68.2183C69.1764 68.2183 68.5254 67.5806 68.5254 66.798C68.5254 66.0153 69.1762 65.3778 69.975 65.3778H72.8087C73.6073 65.3778 74.2529 66.0153 74.2529 66.798C74.2529 67.5806 73.6075 68.2183 72.8087 68.2183H69.975ZM58.7391 68.2183C57.9351 68.2183 57.2895 67.5806 57.2895 66.798C57.2895 66.0153 57.9349 65.3778 58.7391 65.3778H61.5672C62.3657 65.3778 63.0168 66.0153 63.0168 66.798C63.0168 67.5806 62.3659 68.2183 61.5672 68.2183H58.7391ZM47.4978 68.2183C46.6992 68.2183 46.0481 67.5806 46.0481 66.798C46.0481 66.0153 46.6992 65.3778 47.4978 65.3778H50.3314C51.13 65.3778 51.7755 66.0153 51.7755 66.798C51.7755 67.5806 51.13 68.2183 50.3314 68.2183H47.4978ZM36.2566 68.2183C35.4579 68.2183 34.8124 67.5806 34.8124 66.798C34.8124 66.0153 35.4579 65.3778 36.2566 65.3778H39.0901C39.8889 65.3778 40.5397 66.0153 40.5397 66.798C40.5397 67.5806 39.8889 68.2183 39.0901 68.2183H36.2566ZM25.0207 68.2183C24.2221 68.2183 23.5711 67.5806 23.5711 66.798C23.5711 66.0153 24.2221 65.3778 25.0207 65.3778H27.8544C28.653 65.3778 29.2986 66.0153 29.2986 66.798C29.2986 67.5806 28.6532 68.2183 27.8544 68.2183H25.0207ZM34.8507 21.262C34.0521 21.262 33.4067 20.6294 33.4067 19.8467C33.4067 19.0643 34.0521 18.4264 34.8507 18.4264H43.0998L38.2915 13.7153C36.8257 12.2788 36.0925 10.387 36.0925 8.5004C36.0925 4.41617 39.4459 1.13086 43.6087 1.13086C46.1796 1.13086 47.7714 2.14387 49.5002 3.83739C51.2286 2.14368 52.8151 1.13086 55.3861 1.13086C59.5543 1.13086 62.9075 4.41636 62.9075 8.5004C62.9075 10.387 62.1745 12.2788 60.7087 13.7153L55.9002 18.4266H76.375C78.2404 18.4266 79.9417 19.1984 81.1727 20.442C82.3926 21.6748 83.1472 23.3683 83.1472 25.2282V42.9369H83.7053C85.9701 42.9369 88.0269 43.848 89.5148 45.3058C91.0081 46.769 91.9323 48.7844 91.9323 51.0033V70.8343H97.4518C98.3053 70.8343 99 71.515 99 72.3457C99 74.7468 97.9934 76.9337 96.3798 78.5149C94.766 80.0959 92.5397 81.0767 90.0888 81.0767H70.8939C70.1937 82.54 68.4761 83.8046 66.0146 84.7803C63.3998 85.82 59.8387 86.6078 55.7633 87.0098V88.7734L66.8844 93.1418C67.6282 93.4309 67.984 94.2564 67.6885 94.9799C67.4697 95.516 66.9391 95.8697 66.3482 95.8697H32.6462C31.8475 95.8697 31.202 95.2372 31.202 94.4545C31.202 93.8168 31.6286 93.2811 32.2141 93.0986L43.2365 88.7734V87.0098C39.1557 86.6079 35.5948 85.8202 32.98 84.7803C30.5183 83.8048 28.8061 82.54 28.1059 81.0767H21.9246C21.0713 81.0767 20.3818 80.3958 20.3818 79.5599C20.3818 78.7292 21.0711 78.0485 21.9246 78.0485H90.0888C91.6916 78.0485 93.1414 77.4051 94.197 76.3708C94.9027 75.6846 95.4279 74.8219 95.7015 73.8625H3.29852C3.57193 74.8219 4.09709 75.6846 4.79725 76.3708C5.85299 77.4053 7.30802 78.0485 8.90536 78.0485H15.3713C16.219 78.0485 16.9137 78.7292 16.9137 79.5599C16.9137 80.3958 16.219 81.0767 15.3713 81.0767H8.90536C6.45472 81.0767 4.22838 80.0957 2.61461 78.5149C1.00083 76.9333 0 74.7465 0 72.3453C0 71.5146 0.689133 70.8339 1.54262 70.8339H7.06206V54.6101V51.0029C7.06206 48.784 7.99212 46.7684 9.47983 45.3055C10.9731 43.8478 13.0299 42.9365 15.2947 42.9365H15.8472C15.8472 37.0354 15.8472 31.1289 15.8472 25.2278C15.8472 23.3681 16.6074 21.6744 17.8273 20.4416C19.0583 19.1982 20.7538 18.4262 22.6248 18.4262H28.2974C29.0959 18.4262 29.7416 19.0641 29.7416 19.8466C29.7416 20.6292 29.0961 21.2618 28.2974 21.2618H22.6248C21.5636 21.2618 20.6007 21.7011 19.8951 22.414C19.184 23.1322 18.7464 24.1238 18.7464 25.2278V28.149C18.7464 29.1783 19.1348 30.1699 19.8679 30.9093C20.557 31.6057 21.5035 32.0345 22.5484 32.0345C23.2265 32.0345 23.8557 31.8577 24.3973 31.5468C24.9664 31.2255 25.4476 30.7591 25.787 30.1911C25.9073 29.9872 26.0822 29.8103 26.3065 29.6818C26.9959 29.2798 27.882 29.5049 28.2867 30.1803C28.6315 30.7483 29.1128 31.2198 29.6816 31.5468C30.2285 31.8579 30.8578 32.0345 31.5305 32.0345C32.2088 32.0345 32.8378 31.8577 33.3794 31.5468C33.9483 31.2255 34.4298 30.7591 34.7743 30.1911C34.8946 29.9872 35.0642 29.8103 35.2885 29.6818C35.9778 29.2798 36.864 29.5049 37.2687 30.1803C37.6134 30.7483 38.0947 31.2198 38.6692 31.5468C39.2106 31.8579 39.8398 32.0345 40.5183 32.0345C41.191 32.0345 41.82 31.8577 42.3672 31.5468C42.9306 31.2255 43.4119 30.7591 43.7566 30.1911C43.8769 29.9872 44.0519 29.8103 44.2706 29.6818C44.9599 29.2798 45.8461 29.5049 46.251 30.1803C46.5957 30.7483 47.077 31.2198 47.6515 31.5468C48.1929 31.8579 48.8219 32.0345 49.5004 32.0345C50.1731 32.0345 50.8077 31.8577 51.3495 31.5468C51.9183 31.2255 52.3942 30.7591 52.7388 30.1911C52.859 29.9872 53.034 29.8103 53.2583 29.6818C53.942 29.2798 54.8284 29.5049 55.2331 30.1803C55.5777 30.7483 56.0591 31.2198 56.6336 31.5468C57.175 31.8579 57.8096 32.0345 58.4827 32.0345C59.1608 32.0345 59.79 31.8577 60.3316 31.5468C60.9005 31.2255 61.3763 30.7591 61.7211 30.1911C61.8414 29.9872 62.0163 29.8103 62.2406 29.6818C62.9244 29.2798 63.8107 29.5049 64.221 30.1803C64.56 30.7483 65.0471 31.2198 65.6159 31.5468C66.1627 31.8579 66.7917 32.0345 67.4648 32.0345C68.1431 32.0345 68.7721 31.8577 69.3137 31.5468C69.8824 31.2255 70.3641 30.7591 70.703 30.1911C70.8235 29.9872 70.9985 29.8103 71.2228 29.6818C71.9119 29.2798 72.7983 29.5049 73.203 30.1803C73.5475 30.7483 74.029 31.2198 74.5979 31.5468C75.1447 31.8579 75.7739 32.0345 76.4468 32.0345C77.4971 32.0345 78.4432 31.6055 79.1271 30.9093C79.8273 30.207 80.2538 29.2317 80.2538 28.149V25.2278C80.2538 24.124 79.8106 23.1322 79.0998 22.414C78.3995 21.7011 77.4366 21.2618 76.3754 21.2618H34.8507V21.262ZM80.2534 33.6749C79.1704 34.4308 77.8631 34.8704 76.4464 34.8704C75.2537 34.8704 74.1322 34.554 73.1531 33.9966C72.7209 33.7501 72.3216 33.4608 71.9554 33.1284C71.5942 33.4608 71.1949 33.7501 70.7628 33.9966C69.7836 34.554 68.6623 34.8704 67.4642 34.8704C66.2716 34.8704 65.1447 34.554 64.1711 33.9966C63.7388 33.7501 63.3395 33.4608 62.9731 33.1284C62.6121 33.4608 62.2072 33.7501 61.7804 33.9966C60.8013 34.554 59.6744 34.8704 58.4819 34.8704C57.2893 34.8704 56.1624 34.554 55.1888 33.9966C54.7565 33.7501 54.3574 33.4608 53.991 33.1284C53.6244 33.4608 53.2251 33.7501 52.7929 33.9966C51.8192 34.554 50.6924 34.8704 49.4998 34.8704C48.3072 34.8704 47.1803 34.554 46.2013 33.9966C45.7747 33.7501 45.3698 33.4608 45.0088 33.1284C44.6424 33.4608 44.2431 33.7501 43.811 33.9966C42.8372 34.554 41.7103 34.8704 40.5179 34.8704C39.3198 34.8704 38.1983 34.554 37.2192 33.9966C36.7872 33.7501 36.3877 33.4608 36.0267 33.1284C35.6601 33.4608 35.2608 33.7501 34.8287 33.9966C33.8495 34.554 32.7282 34.8704 31.5301 34.8704C30.3375 34.8704 29.2162 34.554 28.237 33.9966C27.8049 33.7501 27.4056 33.4608 27.039 33.1284C26.6778 33.4608 26.2785 33.7501 25.8463 33.9966C24.8672 34.554 23.7403 34.8704 22.5478 34.8704C21.1365 34.8704 19.8236 34.431 18.7458 33.6749V42.9367H66.7908C67.5895 42.9367 68.235 43.5746 68.235 44.3571C68.235 45.1393 67.5895 45.7774 66.7908 45.7774H15.2947C13.8287 45.7774 12.4941 46.3615 11.5258 47.3102C10.5574 48.2588 9.9611 49.5666 9.9611 51.0031V54.6103C9.9611 56.0304 10.5464 57.3115 11.4929 58.2385C12.439 59.171 13.7521 59.7444 15.1963 59.7444C16.1314 59.7444 17.0069 59.5034 17.767 59.0853C18.5331 58.6676 19.1783 58.0617 19.638 57.3437C19.7582 57.1292 19.9332 56.9364 20.1629 56.8024C20.8414 56.3953 21.733 56.6041 22.1487 57.274C22.6136 58.0244 23.2754 58.6515 24.0632 59.0853C24.8183 59.5034 25.6988 59.7444 26.6289 59.7444C27.5642 59.7444 28.4451 59.5034 29.1998 59.0853C29.9821 58.6566 30.6438 58.035 31.1036 57.2954C31.2239 57.097 31.388 56.9256 31.6013 56.8022C32.2852 56.3951 33.1714 56.609 33.5815 57.2791C34.0465 58.0244 34.7084 58.6515 35.4961 59.0853C36.2566 59.5034 37.1318 59.7444 38.0672 59.7444C39.0025 59.7444 39.8779 59.5034 40.6325 59.0853C41.3986 58.6676 42.0439 58.0617 42.5091 57.3437C42.6238 57.1292 42.7989 56.9364 43.0286 56.8024C43.7124 56.3953 44.5985 56.6041 45.0145 57.274C45.4849 58.0244 46.1466 58.6515 46.9289 59.0853C47.6892 59.5034 48.5643 59.7444 49.5 59.7444C50.4353 59.7444 51.3108 59.5034 52.0655 59.0853C52.8532 58.6566 53.5151 58.0295 53.9857 57.274C54.1006 57.0864 54.2646 56.9203 54.4726 56.8024C55.1507 56.3953 56.0371 56.6092 56.4474 57.2793C56.9124 58.0246 57.5743 58.6517 58.3675 59.0855C59.1223 59.5036 59.9975 59.7446 60.933 59.7446C61.8682 59.7446 62.7436 59.5036 63.4982 59.0855C64.286 58.6568 64.9425 58.0352 65.4077 57.2956C65.5225 57.0972 65.6919 56.9258 65.9054 56.8024C66.5837 56.3953 67.4699 56.6092 67.8802 57.2793C68.345 58.0246 69.0069 58.6517 69.8 59.0855C70.5549 59.5036 71.4302 59.7446 72.3657 59.7446C73.301 59.7446 74.1761 59.5036 74.9366 59.0855C75.7189 58.6568 76.3806 58.0297 76.8513 57.2742C76.9661 57.0866 77.1301 56.9204 77.3381 56.8026C78.0164 56.3955 78.9028 56.6094 79.3185 57.2795C79.7834 58.0248 80.4398 58.6519 81.233 59.0857C81.9879 59.5038 82.8632 59.7448 83.7985 59.7448C85.2481 59.7448 86.5554 59.1713 87.5073 58.2389C88.4536 57.3117 89.0389 56.0308 89.0389 54.6106V51.0034C89.0389 49.567 88.4372 48.2592 87.469 47.3106C86.5009 46.3618 85.1713 45.7778 83.7053 45.7778H73.3447C72.5463 45.7778 71.9007 45.1397 71.9007 44.3574C71.9007 43.575 72.5463 42.9371 73.3447 42.9371H80.2536V33.6749H80.2534ZM89.0387 60.7042C87.6218 61.8724 85.7949 62.5798 83.7983 62.5798C82.3543 62.5798 80.9975 62.2102 79.8215 61.5562C79.187 61.208 78.6015 60.7735 78.0876 60.2751C77.5677 60.7735 76.9826 61.208 76.348 61.5562C75.1663 62.2102 73.8099 62.5798 72.3657 62.5798C70.9215 62.5798 69.5649 62.2102 68.3833 61.5562C67.7489 61.208 67.169 60.7735 66.6492 60.2702C66.1349 60.7735 65.5498 61.208 64.9152 61.5562C63.7336 62.2102 62.3772 62.5798 60.933 62.5798C59.4888 62.5798 58.1321 62.2102 56.9505 61.5562C56.3159 61.208 55.736 60.7735 55.2165 60.2751C54.7021 60.7735 54.117 61.208 53.4824 61.5562C52.3008 62.2102 50.9444 62.5798 49.5002 62.5798C48.056 62.5798 46.6994 62.2102 45.5178 61.5562C44.8832 61.208 44.2979 60.7735 43.7839 60.2751C43.2642 60.7735 42.6843 61.208 42.0443 61.5562C40.8682 62.2102 39.5116 62.5798 38.0676 62.5798C36.6234 62.5798 35.2614 62.2102 34.0852 61.5562C33.4508 61.208 32.8653 60.7735 32.3513 60.2702C31.8314 60.7735 31.2463 61.208 30.6117 61.5562C29.4359 62.2102 28.0737 62.5798 26.6295 62.5798C25.1909 62.5798 23.8286 62.2102 22.6526 61.5562C22.0126 61.208 21.4273 60.7735 20.9132 60.2751C20.3988 60.7735 19.8135 61.208 19.1791 61.5562C18.0031 62.2102 16.6411 62.5798 15.1969 62.5798C13.2001 62.5798 11.3732 61.8724 9.96168 60.7042V70.8341H89.0393V60.7042H89.0387ZM64.9314 82.1537C65.8176 81.7998 66.556 81.4408 67.1195 81.0765H31.8805C32.4384 81.441 33.1824 81.7998 34.0684 82.1537C36.6888 83.1934 40.4195 83.9654 44.7298 84.2974C45.5067 84.319 46.1303 84.9461 46.1303 85.7126V89.7271C46.1303 90.2898 45.7858 90.8204 45.2223 91.0402L40.1404 93.034H58.8541L53.8761 91.0828C53.2908 90.9008 52.8641 90.3648 52.8641 89.7271V85.7126C52.8641 84.9783 53.4439 84.3565 54.2044 84.3031C58.5477 83.9707 62.2946 83.1987 64.9314 82.1537Z" fill="black"/>
</g>
<defs>
<clipPath id="clip0_20_544">
<rect width="99" height="97" fill="white"/>
</clipPath>
</defs>
</svg>
