<svg width="90" height="90" viewBox="0 0 90 90" fill="none" xmlns="http://www.w3.org/2000/svg">
<path d="M36.8068 44.9998C36.8068 40.4761 40.4752 36.808 45.0016 36.808C49.5281 36.808 53.1984 40.4761 53.1984 44.9998C53.1984 49.5235 49.5281 53.1917 45.0016 53.1917C40.4752 53.1917 36.8068 49.5235 36.8068 44.9998ZM32.3758 44.9998C32.3758 51.9689 38.0284 57.6181 45.0016 57.6181C51.9749 57.6181 57.6274 51.9689 57.6274 44.9998C57.6274 38.0308 51.9749 32.3816 45.0016 32.3816C38.0284 32.3816 32.3758 38.0308 32.3758 44.9998ZM55.1767 31.8813C55.1764 32.4645 55.3493 33.0347 55.6733 33.5198C55.9973 34.0048 56.458 34.383 56.997 34.6064C57.5361 34.8298 58.1293 34.8884 58.7017 34.7749C59.2742 34.6613 59.8 34.3807 60.2128 33.9684C60.6256 33.5562 60.9069 33.0309 61.0209 32.4589C61.135 31.8869 61.0768 31.294 60.8537 30.7551C60.6306 30.2162 60.2526 29.7555 59.7675 29.4313C59.2824 29.107 58.712 28.9339 58.1284 28.9336H58.1273C57.345 28.934 56.5949 29.2446 56.0417 29.7973C55.4885 30.35 55.1774 31.0995 55.1767 31.8813ZM35.068 65.0021C32.6707 64.893 31.3677 64.4939 30.5018 64.1568C29.3538 63.7101 28.5347 63.1782 27.6736 62.3187C26.8124 61.4592 26.2793 60.6414 25.8344 59.4941C25.4968 58.6291 25.0975 57.3265 24.9885 54.9307C24.8693 52.3405 24.8455 51.5624 24.8455 45C24.8455 38.4377 24.8713 37.6618 24.9885 35.0694C25.0977 32.6735 25.5 31.3735 25.8344 30.506C26.2813 29.3587 26.8136 28.5401 27.6736 27.6794C28.5336 26.8187 29.3519 26.286 30.5018 25.8413C31.3673 25.504 32.6707 25.1049 35.068 24.996C37.6598 24.8768 38.4383 24.853 45.0016 24.853C51.5649 24.853 52.3443 24.8788 54.9383 24.996C57.3355 25.1051 58.6363 25.5071 59.5044 25.8413C60.6524 26.286 61.4715 26.8199 62.3327 27.6794C63.1938 28.5389 63.7249 29.3587 64.1719 30.506C64.5094 31.3709 64.9087 32.6735 65.0177 35.0694C65.1369 37.6618 65.1607 38.4377 65.1607 45C65.1607 51.5624 65.1369 52.3383 65.0177 54.9307C64.9085 57.3265 64.5072 58.6287 64.1719 59.4941C63.7249 60.6414 63.1927 61.46 62.3327 62.3187C61.4727 63.1774 60.6524 63.7101 59.5044 64.1568C58.6389 64.4941 57.3355 64.8932 54.9383 65.0021C52.3465 65.1213 51.5679 65.145 45.0016 65.145C38.4354 65.145 37.659 65.1213 35.068 65.0021ZM34.8644 20.5751C32.2468 20.6942 30.4581 21.109 28.8961 21.7165C27.2784 22.3438 25.9089 23.1854 24.5404 24.5509C23.1719 25.9164 22.332 27.2872 21.7043 28.904C21.0965 30.466 20.6814 32.2526 20.5622 34.8686C20.4411 37.4888 20.4133 38.3264 20.4133 44.9998C20.4133 51.6732 20.4411 52.5109 20.5622 55.131C20.6814 57.7472 21.0965 59.5336 21.7043 61.0957C22.332 62.7115 23.1721 64.0839 24.5404 65.4488C25.9087 66.8137 27.2784 67.6541 28.8961 68.2832C30.4611 68.8907 32.2468 69.3055 34.8644 69.4246C37.4875 69.5437 38.3242 69.5734 45.0016 69.5734C51.679 69.5734 52.5172 69.5457 55.1389 69.4246C57.7567 69.3055 59.5441 68.8907 61.1072 68.2832C62.7239 67.6541 64.0944 66.8143 65.4628 65.4488C66.8313 64.0833 67.6695 62.7115 68.299 61.0957C68.9068 59.5336 69.3238 57.747 69.441 55.131C69.5602 52.5089 69.588 51.6732 69.588 44.9998C69.588 38.3264 69.5602 37.4888 69.441 34.8686C69.3218 32.2524 68.9068 30.4651 68.299 28.904C67.6695 27.2882 66.8292 25.9186 65.4628 24.5509C64.0965 23.1832 62.7239 22.3438 61.1091 21.7165C59.5442 21.109 57.7565 20.6923 55.1409 20.5751C52.5192 20.456 51.681 20.4263 45.0036 20.4263C38.3262 20.4263 37.4875 20.454 34.8644 20.5751Z" fill="url(#paint0_radial_8_48)"/>
<path d="M36.8068 44.9998C36.8068 40.4761 40.4752 36.808 45.0016 36.808C49.5281 36.808 53.1984 40.4761 53.1984 44.9998C53.1984 49.5235 49.5281 53.1917 45.0016 53.1917C40.4752 53.1917 36.8068 49.5235 36.8068 44.9998ZM32.3758 44.9998C32.3758 51.9689 38.0284 57.6181 45.0016 57.6181C51.9749 57.6181 57.6274 51.9689 57.6274 44.9998C57.6274 38.0308 51.9749 32.3816 45.0016 32.3816C38.0284 32.3816 32.3758 38.0308 32.3758 44.9998ZM55.1767 31.8813C55.1764 32.4645 55.3493 33.0347 55.6733 33.5198C55.9973 34.0048 56.458 34.383 56.997 34.6064C57.5361 34.8298 58.1293 34.8884 58.7017 34.7749C59.2742 34.6613 59.8 34.3807 60.2128 33.9684C60.6256 33.5562 60.9069 33.0309 61.0209 32.4589C61.135 31.8869 61.0768 31.294 60.8537 30.7551C60.6306 30.2162 60.2526 29.7555 59.7675 29.4313C59.2824 29.107 58.712 28.9339 58.1284 28.9336H58.1273C57.345 28.934 56.5949 29.2446 56.0417 29.7973C55.4885 30.35 55.1774 31.0995 55.1767 31.8813ZM35.068 65.0021C32.6707 64.893 31.3677 64.4939 30.5018 64.1568C29.3538 63.7101 28.5347 63.1782 27.6736 62.3187C26.8124 61.4592 26.2793 60.6414 25.8344 59.4941C25.4968 58.6291 25.0975 57.3265 24.9885 54.9307C24.8693 52.3405 24.8455 51.5624 24.8455 45C24.8455 38.4377 24.8713 37.6618 24.9885 35.0694C25.0977 32.6735 25.5 31.3735 25.8344 30.506C26.2813 29.3587 26.8136 28.5401 27.6736 27.6794C28.5336 26.8187 29.3519 26.286 30.5018 25.8413C31.3673 25.504 32.6707 25.1049 35.068 24.996C37.6598 24.8768 38.4383 24.853 45.0016 24.853C51.5649 24.853 52.3443 24.8788 54.9383 24.996C57.3355 25.1051 58.6363 25.5071 59.5044 25.8413C60.6524 26.286 61.4715 26.8199 62.3327 27.6794C63.1938 28.5389 63.7249 29.3587 64.1719 30.506C64.5094 31.3709 64.9087 32.6735 65.0177 35.0694C65.1369 37.6618 65.1607 38.4377 65.1607 45C65.1607 51.5624 65.1369 52.3383 65.0177 54.9307C64.9085 57.3265 64.5072 58.6287 64.1719 59.4941C63.7249 60.6414 63.1927 61.46 62.3327 62.3187C61.4727 63.1774 60.6524 63.7101 59.5044 64.1568C58.6389 64.4941 57.3355 64.8932 54.9383 65.0021C52.3465 65.1213 51.5679 65.145 45.0016 65.145C38.4354 65.145 37.659 65.1213 35.068 65.0021ZM34.8644 20.5751C32.2468 20.6942 30.4581 21.109 28.8961 21.7165C27.2784 22.3438 25.9089 23.1854 24.5404 24.5509C23.1719 25.9164 22.332 27.2872 21.7043 28.904C21.0965 30.466 20.6814 32.2526 20.5622 34.8686C20.4411 37.4888 20.4133 38.3264 20.4133 44.9998C20.4133 51.6732 20.4411 52.5109 20.5622 55.131C20.6814 57.7472 21.0965 59.5336 21.7043 61.0957C22.332 62.7115 23.1721 64.0839 24.5404 65.4488C25.9087 66.8137 27.2784 67.6541 28.8961 68.2832C30.4611 68.8907 32.2468 69.3055 34.8644 69.4246C37.4875 69.5437 38.3242 69.5734 45.0016 69.5734C51.679 69.5734 52.5172 69.5457 55.1389 69.4246C57.7567 69.3055 59.5441 68.8907 61.1072 68.2832C62.7239 67.6541 64.0944 66.8143 65.4628 65.4488C66.8313 64.0833 67.6695 62.7115 68.299 61.0957C68.9068 59.5336 69.3238 57.747 69.441 55.131C69.5602 52.5089 69.588 51.6732 69.588 44.9998C69.588 38.3264 69.5602 37.4888 69.441 34.8686C69.3218 32.2524 68.9068 30.4651 68.299 28.904C67.6695 27.2882 66.8292 25.9186 65.4628 24.5509C64.0965 23.1832 62.7239 22.3438 61.1091 21.7165C59.5442 21.109 57.7565 20.6923 55.1409 20.5751C52.5192 20.456 51.681 20.4263 45.0036 20.4263C38.3262 20.4263 37.4875 20.454 34.8644 20.5751Z" fill="url(#paint1_radial_8_48)"/>
<defs>
<radialGradient id="paint0_radial_8_48" cx="0" cy="0" r="1" gradientUnits="userSpaceOnUse" gradientTransform="translate(26.9467 69.8056) scale(64.1959 64.1575)">
<stop offset="0.09"/>
<stop offset="0.78"/>
</radialGradient>
<radialGradient id="paint1_radial_8_48" cx="0" cy="0" r="1" gradientUnits="userSpaceOnUse" gradientTransform="translate(50.2368 72.0074) scale(50.5953 50.5649)">
<stop offset="0.64" stop-color="#151515" stop-opacity="0"/>
<stop offset="1"/>
</radialGradient>
</defs>
</svg>
