<svg width="90" height="90" viewBox="0 0 90 90" fill="none" xmlns="http://www.w3.org/2000/svg">
<path d="M45.2301 72.7673C58.8098 72.7673 69.8184 61.7587 69.8184 48.1789C69.8184 34.5992 58.8098 23.5906 45.2301 23.5906C31.6504 23.5906 20.6418 34.5992 20.6418 48.1789C20.6418 61.7587 31.6504 72.7673 45.2301 72.7673Z" fill="black"/>
<path d="M31.1824 47.6404C31.1824 47.6404 43.3622 42.4587 47.5864 40.6341C49.2057 39.9043 54.6971 37.5688 54.6971 37.5688C54.6971 37.5688 57.2317 36.5472 57.0204 39.0285C56.95 40.0503 56.3868 43.6264 55.8236 47.4945C54.9787 52.9682 54.0635 58.9527 54.0635 58.9527C54.0635 58.9527 53.9227 60.6313 52.7258 60.9232C51.529 61.2151 49.5576 59.9015 49.2057 59.6095C48.924 59.3906 43.9254 56.1064 42.0949 54.5007C41.6021 54.0629 41.0389 53.1871 42.1653 52.1653C44.6998 49.7569 47.7272 46.7647 49.5576 44.8671C50.4025 43.9913 51.2473 41.9478 47.7272 44.4292C42.7286 48.0054 37.8003 51.3625 37.8003 51.3625C37.8003 51.3625 36.6738 52.0923 34.5618 51.4355C32.4496 50.7787 29.9855 49.9029 29.9855 49.9029C29.9855 49.9029 28.2959 48.8082 31.1824 47.6404Z" fill="white"/>
</svg>
