<svg width="93" height="112" viewBox="0 0 93 112" fill="none" xmlns="http://www.w3.org/2000/svg">
<g clip-path="url(#clip0_20_468)">
<path d="M81.7557 99.6025H86.6687C90.1762 99.6025 93.0444 96.7938 93.0444 93.3524C93.0444 89.9172 90.1762 87.1082 86.6687 87.1082" stroke="black" stroke-width="4" stroke-miterlimit="10" stroke-linecap="round" stroke-linejoin="round"/>
<path d="M79.9892 110.547H81.7556C84.8262 110.547 87.3399 108.085 87.3399 105.072C87.3399 102.064 84.8262 99.6025 81.7556 99.6025H68.5293" stroke="black" stroke-width="4" stroke-miterlimit="10" stroke-linecap="round" stroke-linejoin="round"/>
<path d="M68.4344 74.6077H86.6687C90.1762 74.6077 93.0445 77.4228 93.0445 80.8581C93.0445 84.2931 90.1762 87.1084 86.6687 87.1084H68.5294" stroke="black" stroke-width="4" stroke-miterlimit="10" stroke-linecap="round" stroke-linejoin="round"/>
<path d="M68.4344 74.6077C64.9331 74.6077 62.0587 71.7987 62.0587 68.3637C62.0587 64.9223 64.9269 62.1133 68.4344 62.1133" stroke="black" stroke-width="4" stroke-miterlimit="10" stroke-linecap="round" stroke-linejoin="round"/>
<path d="M68.5293 87.1083C65.028 87.1083 62.1538 84.2932 62.1538 80.8579C62.1538 77.4229 65.0218 74.6076 68.5293 74.6076" stroke="black" stroke-width="4" stroke-miterlimit="10" stroke-linecap="round" stroke-linejoin="round"/>
<path d="M68.5293 99.6025C65.028 99.6025 62.1538 96.7938 62.1538 93.3524C62.1538 89.9172 65.0218 87.1082 68.5293 87.1082" stroke="black" stroke-width="4" stroke-miterlimit="10" stroke-linecap="round" stroke-linejoin="round"/>
<path d="M68.5293 110.547C65.465 110.547 62.945 108.085 62.945 105.072C62.945 102.064 65.4587 99.6025 68.5293 99.6025" stroke="black" stroke-width="4" stroke-miterlimit="10" stroke-linecap="round" stroke-linejoin="round"/>
<path d="M1.89795 72.6049V61.0656C1.89795 58.2317 4.26597 55.9066 7.16568 55.9066H16.9729C19.8726 55.9066 22.2471 58.2317 22.2471 61.0656V103.788C22.2471 106.622 19.8726 108.947 16.9729 108.947H7.16568C4.27223 108.947 1.89795 106.628 1.89795 103.788V92.2486" stroke="black" stroke-width="4" stroke-miterlimit="10" stroke-linecap="round" stroke-linejoin="round"/>
<path d="M22.2471 102.74H28.9204C34.3463 102.74 32.4405 102.647 34.9922 105.977C37.0624 108.687 42.6404 110.547 46.3252 110.547H81.4202" stroke="black" stroke-width="4" stroke-miterlimit="10" stroke-linecap="round" stroke-linejoin="round"/>
<path d="M86.6687 74.6077C90.17 74.6077 93.0445 71.7987 93.0445 68.3637C93.0445 64.9223 90.1763 62.1133 86.6687 62.1133H58.1966C56.8416 62.1133 56.291 61.7288 56.9113 60.1662C59.5769 53.4386 62.3245 42.9036 57.9432 36.3682C56.2213 33.8012 54.7397 32.3688 52.1186 30.4652C49.7568 28.7476 48.2817 28.5614 47.6106 32.9143C46.4139 40.6157 43.1406 62.1133 29.0596 62.1133H22.2471" stroke="black" stroke-width="4" stroke-miterlimit="10" stroke-linecap="round" stroke-linejoin="round"/>
<path d="M48.3893 70.2734C49.4911 78.1359 45.3566 84.8699 33.7258 86.3456" stroke="black" stroke-width="4" stroke-miterlimit="10" stroke-linecap="round" stroke-linejoin="round"/>
<path d="M51.1307 15.2301V2.9217" stroke="black" stroke-width="4" stroke-miterlimit="10" stroke-linecap="round" stroke-linejoin="round"/>
<path d="M68.504 20.327L75.4305 10.1083" stroke="black" stroke-width="4" stroke-miterlimit="10" stroke-linecap="round" stroke-linejoin="round"/>
<path d="M33.7574 20.327L26.8245 10.1083" stroke="black" stroke-width="4" stroke-miterlimit="10" stroke-linecap="round" stroke-linejoin="round"/>
<path d="M1.89795 82.4391V82.4274" stroke="black" stroke-width="4" stroke-miterlimit="10" stroke-linecap="round" stroke-linejoin="round"/>
</g>
<defs>
<clipPath id="clip0_20_468">
<rect width="93" height="112" fill="white"/>
</clipPath>
</defs>
</svg>
