<svg width="90" height="90" viewBox="0 0 90 90" fill="none" xmlns="http://www.w3.org/2000/svg">
<path fill-rule="evenodd" clip-rule="evenodd" d="M70.9196 31.41C71.2981 30.2213 70.9196 29.3478 69.1181 29.3478H63.1611C61.6464 29.3478 60.9481 30.1024 60.5694 30.9344C60.5694 30.9344 57.54 37.8882 53.2485 42.4052C51.8601 43.7127 51.2289 44.1287 50.4715 44.1287C50.0929 44.1287 49.5448 43.7127 49.5448 42.5241V31.41C49.5448 29.9836 49.1052 29.3478 47.8429 29.3478H38.4817C37.5352 29.3478 36.9659 30.0099 36.9659 30.6373C36.9659 31.9896 39.1116 32.3014 39.3328 36.1052V44.3666C39.3328 46.1778 38.9854 46.5062 38.2281 46.5062C36.2086 46.5062 31.2962 39.5213 28.3827 31.5288C27.8117 29.9754 27.239 29.3478 25.7166 29.3478H19.7595C18.0575 29.3478 17.7171 30.1024 17.7171 30.9344C17.7171 32.4203 19.7367 39.7901 27.1206 49.5373C32.0431 56.1938 38.9787 59.8021 45.2898 59.8021C49.0764 59.8021 49.5449 59.0007 49.5449 57.6202V52.5892C49.5449 50.9864 49.9036 50.6665 51.1027 50.6665C51.9862 50.6665 53.5009 51.0825 57.0352 54.292C61.0742 58.0957 61.7401 59.8021 64.0121 59.8021H69.9691C71.6712 59.8021 72.5222 59.0007 72.0312 57.4191C71.494 55.8428 69.5656 53.5558 67.0067 50.8448C65.6182 49.2995 63.5356 47.6354 62.9044 46.8032C62.0209 45.7335 62.2733 45.258 62.9044 44.3071C62.9044 44.3071 70.1623 34.6788 70.9196 31.41Z" fill="black"/>
</svg>
