<svg width="90" height="90" viewBox="0 0 90 90" fill="none" xmlns="http://www.w3.org/2000/svg">
<path d="M22.5002 65.7004L25.7288 53.7062C23.125 49.0338 22.2977 43.5816 23.3989 38.3499C24.5 33.1183 27.4556 28.4582 31.7233 25.2247C35.9911 21.9913 41.2847 20.4014 46.6328 20.7468C51.981 21.0923 57.0248 23.3498 60.8389 27.1053C64.6529 30.8607 66.9813 35.8621 67.3968 41.1917C67.8123 46.5213 66.287 51.8216 63.1008 56.12C59.9146 60.4184 55.2812 63.4265 50.0509 64.5924C44.8206 65.7583 39.3442 65.0038 34.6267 62.4673L22.5002 65.7004ZM35.2114 57.9789L35.9614 58.4227C39.3784 60.4429 43.3694 61.2789 47.3125 60.8004C51.2556 60.3219 54.9293 58.5558 57.7611 55.7773C60.5928 52.9988 62.4236 49.364 62.968 45.4394C63.5125 41.5147 62.7401 37.5206 60.7711 34.0795C58.8022 30.6384 55.7474 27.9436 52.0827 26.4151C48.418 24.8865 44.3494 24.6101 40.5107 25.6289C36.6721 26.6476 33.2792 28.9044 30.8607 32.0474C28.4421 35.1904 27.1339 39.0431 27.1398 43.0052C27.1366 46.2904 28.0474 49.512 29.771 52.3115L30.2413 53.0849L28.4363 59.7793L35.2114 57.9789Z" fill="black"/>
<path fill-rule="evenodd" clip-rule="evenodd" d="M53.4135 46.085C52.9738 45.7313 52.4591 45.4823 51.9084 45.3571C51.3577 45.2318 50.7856 45.2336 50.2357 45.3623C49.4094 45.7046 48.8756 46.9978 48.3417 47.6445C48.2291 47.7995 48.0637 47.9082 47.8765 47.9502C47.6893 47.9922 47.4931 47.9647 47.3248 47.8727C44.3 46.691 41.7645 44.5239 40.1303 41.7234C39.9909 41.5487 39.9249 41.3268 39.9462 41.1045C39.9676 40.8822 40.0746 40.6768 40.2447 40.5316C40.8401 39.9437 41.2773 39.2154 41.5158 38.4142C41.5687 37.5305 41.3658 36.6503 40.9311 35.8785C40.595 34.7964 39.9554 33.8329 39.0879 33.1018C38.6405 32.9011 38.1444 32.8338 37.6595 32.908C37.1745 32.9823 36.7215 33.1949 36.355 33.5202C35.7188 34.0677 35.2138 34.7506 34.8772 35.5186C34.5406 36.2866 34.3811 37.1201 34.4102 37.9578C34.4122 38.4282 34.4719 38.8966 34.5882 39.3525C34.8833 40.4478 35.3373 41.4943 35.9356 42.4588C36.3672 43.1976 36.8382 43.9129 37.3465 44.6015C38.9984 46.8634 41.0748 48.7839 43.4606 50.2563C44.6578 51.0046 45.9373 51.6129 47.274 52.0694C48.6624 52.6972 50.1954 52.9382 51.7102 52.7667C52.5732 52.6364 53.3909 52.2965 54.0913 51.777C54.7918 51.2574 55.3534 50.5741 55.7269 49.7872C55.9464 49.3118 56.013 48.7804 55.9176 48.2657C55.6888 47.2134 54.2778 46.5921 53.4135 46.085Z" fill="black"/>
</svg>
